<?xml version="1.0" standalone="no"?>
<!DOCTYPE svg PUBLIC "-//W3C//DTD SVG 20010904//EN"
 "http://www.w3.org/TR/2001/REC-SVG-20010904/DTD/svg10.dtd">
<svg version="1.0" xmlns="http://www.w3.org/2000/svg"
 width="608.000000pt" height="608.000000pt" viewBox="0 0 608.000000 608.000000"
 preserveAspectRatio="xMidYMid meet">
<metadata>
Created by potrace 1.11, written by Peter Selinger 2001-2013
</metadata>
<g transform="translate(0.000000,608.000000) scale(0.100000,-0.100000)"
fill="#000000" stroke="none">
<path d="M468 6073 c-2 -5 -3 -172 -3 -373 l1 -364 -30 -26 c-16 -14 -69 -55
-118 -92 l-89 -68 119 0 118 0 0 -30 c0 -16 -4 -30 -10 -31 -6 0 -58 -1 -116
-2 l-105 -2 -1 -2015 c0 -1927 0 -2017 18 -2070 10 -30 30 -69 46 -86 31 -35
102 -90 102 -79 0 4 6 3 13 -3 44 -37 35 -36 2612 -39 2464 -2 2511 -2 2579
17 38 11 86 30 105 44 48 31 91 75 91 92 0 8 4 14 9 14 5 0 11 14 15 30 3 17
6 31 6 33 12 39 15 78 8 91 -5 9 -5 16 -1 16 10 0 9 332 -1 348 -4 7 -3 12 1
12 12 0 10 103 -2 112 -7 5 -7 8 0 8 12 0 12 330 1 348 -4 7 -4 12 1 12 4 0 8
38 8 85 0 47 -4 85 -8 85 -4 0 -4 8 0 17 11 22 10 104 0 121 -5 6 -4 12 0 12
12 0 10 103 -2 112 -7 5 -7 8 0 8 12 0 12 330 1 348 -4 7 -3 12 1 12 12 0 10
103 -2 112 -7 5 -7 8 0 8 12 0 12 330 1 348 -4 7 -4 12 1 12 4 0 8 38 8 85 0
47 -4 85 -8 85 -4 0 -4 8 0 18 11 21 10 103 0 120 -5 6 -4 12 0 12 12 0 10
103 -2 112 -7 5 -7 8 0 8 12 0 12 330 1 348 -4 7 -3 12 1 12 12 0 10 103 -2
112 -7 5 -7 8 0 8 12 0 12 330 1 348 -4 7 -4 12 1 12 4 0 8 38 8 85 0 47 -4
85 -8 85 -4 0 -4 8 0 18 11 21 10 103 0 120 -5 6 -5 12 0 12 10 0 9 132 -1
148 -4 7 -4 12 1 12 4 0 8 18 8 41 l0 40 -90 -1 c-151 -3 -145 -4 -145 30 l0
31 111 -2 c60 -1 112 1 115 4 3 3 -10 15 -28 28 -18 13 -35 26 -38 29 -3 3
-34 28 -70 55 -36 28 -70 55 -77 62 -10 9 -13 97 -13 382 l0 371 -2569 0
c-1414 0 -2571 -3 -2573 -7z"/>
</g>
</svg>
