<svg xmlns="http://www.w3.org/2000/svg" width="327" height="15" viewBox="0 0 327 15">
  <g id="connector-shape_2" data-name="connector-shape # 2" transform="translate(-802 -663)">
    <circle id="Ellipse_1" data-name="Ellipse 1" cx="7.5" cy="7.5" r="7.5" transform="translate(802 663)" fill="#e8e5ff"/>
    <circle id="Ellipse_1-2" data-name="Ellipse 1" cx="7.5" cy="7.5" r="7.5" transform="translate(836 663)" fill="#e8e5ff"/>
    <path id="Path_12" data-name="Path 12" d="M7.5,0A7.5,7.5,0,1,1,0,7.5,7.5,7.5,0,0,1,7.5,0Z" transform="translate(875 663)" fill="#e8e5ff"/>
    <circle id="Ellipse_1-3" data-name="Ellipse 1" cx="7.5" cy="7.5" r="7.5" transform="translate(907 663)" fill="#e8e5ff"/>
    <circle id="Ellipse_1-4" data-name="Ellipse 1" cx="7.5" cy="7.5" r="7.5" transform="translate(938 663)" fill="#e8e5ff"/>
    <circle id="Ellipse_1-5" data-name="Ellipse 1" cx="7.5" cy="7.5" r="7.5" transform="translate(961 663)" fill="#e8e5ff"/>
    <circle id="Ellipse_1-6" data-name="Ellipse 1" cx="7.5" cy="7.5" r="7.5" transform="translate(1017 663)" fill="#e8e5ff"/>
    <circle id="Ellipse_2" data-name="Ellipse 2" cx="7.5" cy="7.5" r="7.5" transform="translate(984 663)" fill="#e8e5ff"/>
    <circle id="Ellipse_1-7" data-name="Ellipse 1" cx="7.5" cy="7.5" r="7.5" transform="translate(1053 663)" fill="#e8e5ff"/>
    <circle id="Ellipse_1-8" data-name="Ellipse 1" cx="7.5" cy="7.5" r="7.5" transform="translate(1083 663)" fill="#e8e5ff"/>
    <circle id="Ellipse_1-9" data-name="Ellipse 1" cx="7.5" cy="7.5" r="7.5" transform="translate(1114 663)" fill="#e8e5ff"/>
  </g>
</svg>
