<svg xmlns="http://www.w3.org/2000/svg" width="173.77" height="163.363" viewBox="0 0 173.77 163.363">
  <g id="empty-bag-view-word" transform="translate(-873 -348)">
    <path id="Path_1" data-name="Path 1" d="M24.025.591H183.057V120.3H24.162Z" transform="translate(856.285 347.409)" fill="#b8b6dd" opacity="0.5"/>
    <path id="Path_2" data-name="Path 2" d="M.394,31.222V154.637c0,6,5.148,9.317,11.516,9.317h150.38c6.368,0,11.516-3.318,11.516-9.317V31.222C173.8,31.349.53,31.222.394,31.222ZM24.78,10.929,8.523.591V26.116H24.78V10.929ZM165.676.591,149.419,10.8V26.116h16.257Z" transform="translate(872.606 347.409)" fill="#b8b6dd"/>
    <path id="Path_3" data-name="Path 3" d="M24.515,51.271V32.1L0,51.271ZM149.12,32.1V51.27h24.65Z" transform="translate(873 325.488)" fill="#b8b6dd"/>
  </g>
</svg>
