<svg xmlns="http://www.w3.org/2000/svg" xmlns:xlink="http://www.w3.org/1999/xlink" width="561.648" height="531.713" viewBox="0 0 561.648 531.713">
  <defs>
    <filter id="Path_2" x="0" y="0" width="561.648" height="531.713" filterUnits="userSpaceOnUse">
      <feOffset dy="10" input="SourceAlpha"/>
      <feGaussianBlur stdDeviation="7.5" result="blur"/>
      <feFlood flood-opacity="0.161"/>
      <feComposite operator="in" in2="blur"/>
      <feComposite in="SourceGraphic"/>
    </filter>
  </defs>
  <g id="hero-section-shape-_-examples" data-name="hero-section-shape-#-examples" transform="translate(-1098.5 -360.968)">
    <g id="letters_group_2" data-name="letters group # 2">
      <text id="G" transform="translate(1472.487 474.769) rotate(-25)" fill="#363350" font-size="40" font-family="Raleway-Medium, Raleway" font-weight="500"><tspan x="0" y="0">G</tspan></text>
      <text id="J" transform="translate(1371.417 405.441) rotate(47)" fill="#363350" font-size="40" font-family="Raleway-Medium, Raleway" font-weight="500"><tspan x="0" y="0">J</tspan></text>
      <text id="S" transform="translate(1267.569 440.328) rotate(-13)" fill="#363350" font-size="40" font-family="Raleway-Medium, Raleway" font-weight="500"><tspan x="0" y="0">S</tspan></text>
      <text id="X" transform="translate(1298.886 459.866) rotate(9)" fill="#363350" font-size="40" font-family="Raleway-Medium, Raleway" font-weight="500"><tspan x="0" y="0">X</tspan></text>
      <text id="N" transform="translate(1383.466 437.275) rotate(133)" fill="#363350" font-size="40" font-family="Raleway-Medium, Raleway" font-weight="500"><tspan x="0" y="0">N</tspan></text>
      <text id="T" transform="matrix(0.788, -0.616, 0.616, 0.788, 1472.577, 433.622)" fill="#363350" font-size="40" font-family="Raleway-Medium, Raleway" font-weight="500"><tspan x="0" y="0">T</tspan></text>
      <text id="K" transform="translate(1212.6 443.879) rotate(29)" fill="#363350" font-size="40" font-family="Raleway-Medium, Raleway" font-weight="500"><tspan x="0" y="0">K</tspan></text>
      <text id="H" transform="translate(1342.194 421.847) rotate(-24)" fill="#363350" font-size="40" font-family="Raleway-Medium, Raleway" font-weight="500"><tspan x="0" y="0">H</tspan></text>
      <text id="F" transform="translate(1436.205 460.502) rotate(-25)" fill="#363350" font-size="40" font-family="Raleway-Medium, Raleway" font-weight="500"><tspan x="0" y="0">F</tspan></text>
      <text id="D" transform="matrix(0.643, 0.766, -0.766, 0.643, 1209.072, 395.713)" fill="#363350" font-size="40" font-family="Raleway-Medium, Raleway" font-weight="500"><tspan x="0" y="0">D</tspan></text>
      <text id="Z" transform="matrix(0.574, 0.819, -0.819, 0.574, 1509.453, 429.578)" fill="#363350" font-size="40" font-family="Raleway-Medium, Raleway" font-weight="500"><tspan x="0" y="0">Z</tspan></text>
    </g>
    <g id="hero-section-bag" transform="translate(664.422 228)">
      <g id="shopping-bag" transform="translate(456.578 145.468)">
        <path id="Path_1" data-name="Path 1" d="M24.025.591H497.832V357.243H24.433Z" transform="translate(-2.247 -0.591)" fill="#b8b6dd" opacity="0.5"/>
        <g transform="matrix(1, 0, 0, 1, -22.5, -12.5)" filter="url(#Path_2)">
          <path id="Path_2-2" data-name="Path 2" d="M.394,91.85v367.7C.394,477.417,15.732,487.3,34.7,487.3h448.03c18.971,0,34.309-9.886,34.309-27.758V91.85C517.042,92.23.8,91.85.394,91.85ZM73.047,31.39,24.612.591V76.64H73.048V31.39ZM492.824.591l-48.436,30.42V76.64h48.436Z" transform="translate(22.11 11.91)" fill="#b8b6dd"/>
        </g>
        <path id="Path_3" data-name="Path 3" d="M73.037,89.22V32.1L0,89.22ZM444.278,32.1V89.219h73.441Z" transform="translate(0 -3.538)" fill="#b8b6dd"/>
      </g>
    </g>
  </g>
</svg>
