<svg id="linkedin" xmlns="http://www.w3.org/2000/svg" width="63" height="63" viewBox="0 0 63 63">
  <ellipse id="Ellipse_4" data-name="Ellipse 4" cx="31.5" cy="31.5" rx="31.5" ry="31.5" fill="#007ab9"/>
  <g id="Group_2" data-name="Group 2" transform="translate(15.199 13.46)">
    <path id="Path_14" data-name="Path 14" d="M62.19,44.544V57.531H54.66V45.415c0-3.042-1.087-5.12-3.813-5.12a4.119,4.119,0,0,0-3.862,2.753,5.153,5.153,0,0,0-.249,1.835V57.53h-7.53s.1-20.521,0-22.646h7.531v3.209c-.015.025-.036.05-.05.074h.05v-.074a7.476,7.476,0,0,1,6.786-3.741c4.954,0,8.668,3.237,8.668,10.191ZM31.329,23.969a3.924,3.924,0,1,0-.1,7.826h.049a3.925,3.925,0,1,0,.05-7.826ZM27.516,57.531h7.527V34.885H27.516Z" transform="translate(-27.068 -23.969)" fill="#f1f2f2"/>
  </g>
</svg>
