<svg xmlns="http://www.w3.org/2000/svg" width="34.73" height="37.532" viewBox="0 0 34.73 37.532">
  <g id="logo" transform="translate(-109 -72.468)">
    <g id="shopping-bag" transform="translate(109 71.877)">
      <path id="Path_1" data-name="Path 1" d="M24.025.591H55.809V24.516H24.052Z" transform="translate(-22.564)" fill="#d07c3f"/>
      <path id="Path_2" data-name="Path 2" d="M.394,6.713V31.379c0,1.2,1.029,1.862,2.3,1.862H32.751c1.273,0,2.3-.663,2.3-1.862V6.713C35.052,6.738.421,6.713.394,6.713ZM5.268,2.657,2.019.591v5.1H5.268V2.657ZM33.428.591,30.178,2.632V5.693h3.249Z" transform="translate(-0.37)" fill="#eec65d"/>
      <path id="Path_3" data-name="Path 3" d="M4.9,35.93V32.1L0,35.93ZM29.8,32.1V35.93H34.73Z" transform="translate(0 -29.591)" fill="#dca34f"/>
      <path id="Path_4" data-name="Path 4" d="M91.9,185.7a1.329,1.329,0,0,0-1.317,1.317,1.313,1.313,0,0,0,1.317,1.317,1.329,1.329,0,0,0,1.317-1.317A1.3,1.3,0,0,0,91.9,185.7Zm16.046,0a1.329,1.329,0,0,0-1.317,1.317,1.313,1.313,0,0,0,1.317,1.317,1.329,1.329,0,0,0,1.317-1.317A1.3,1.3,0,0,0,107.947,185.7Z" transform="translate(-83.245 -173.049)" fill="#d07c3f"/>
    </g>
    <text id="W" transform="translate(110.422 103)" fill="#5a78fe" font-size="30" font-family="Raleway-Medium, Raleway" font-weight="500"><tspan x="0" y="0">W</tspan></text>
  </g>
</svg>
