<svg xmlns="http://www.w3.org/2000/svg" width="38.383" height="26.622" viewBox="0 0 38.383 26.622">
  <g id="menu-icon" transform="translate(-340.617 -58.5)">
    <g id="Group_5" data-name="Group 5" transform="translate(340.617 70.261)">
      <g id="Group_4" data-name="Group 4" transform="translate(0 0)">
        <path id="Path_16" data-name="Path 16" d="M36.832,235.318H1.55a1.55,1.55,0,1,0,0,3.1H36.832a1.55,1.55,0,1,0,0-3.1Z" transform="translate(0 -235.318)" fill="#b8b6dd"/>
      </g>
    </g>
    <g id="Group_7" data-name="Group 7" transform="translate(340.617 58.5)">
      <g id="Group_6" data-name="Group 6" transform="translate(0 0)">
        <path id="Path_17" data-name="Path 17" d="M36.832,78.439H1.55a1.55,1.55,0,0,0,0,3.1H36.832a1.55,1.55,0,0,0,0-3.1Z" transform="translate(0 -78.439)" fill="#b8b6dd"/>
      </g>
    </g>
    <g id="Group_9" data-name="Group 9" transform="translate(340.617 82.021)">
      <g id="Group_8" data-name="Group 8" transform="translate(0 0)">
        <path id="Path_18" data-name="Path 18" d="M36.832,392.2H1.55a1.55,1.55,0,1,0,0,3.1H36.832a1.55,1.55,0,1,0,0-3.1Z" transform="translate(0 -392.197)" fill="#b8b6dd"/>
      </g>
    </g>
  </g>
</svg>
