<svg xmlns="http://www.w3.org/2000/svg" width="63" height="63" viewBox="0 0 63 63">
  <g id="twitter" transform="translate(-73.505)">
    <ellipse id="Ellipse_5" data-name="Ellipse 5" cx="31.5" cy="31.5" rx="31.5" ry="31.5" transform="translate(73.505 0)" fill="#55acee"/>
    <g id="Group_3" data-name="Group 3" transform="translate(87.601 19.107)">
      <path id="Path_15" data-name="Path 15" d="M61.8,37.559a15.023,15.023,0,0,1-4.325,1.184,7.55,7.55,0,0,0,3.311-4.165A15.073,15.073,0,0,1,56.008,36.4a7.536,7.536,0,0,0-12.831,6.869,21.374,21.374,0,0,1-15.52-7.868,7.538,7.538,0,0,0,2.33,10.053,7.476,7.476,0,0,1-3.41-.943c0,.032,0,.064,0,.1a7.534,7.534,0,0,0,6.04,7.382,7.559,7.559,0,0,1-3.4.13,7.537,7.537,0,0,0,7.034,5.229A15.2,15.2,0,0,1,25.1,60.47a21.3,21.3,0,0,0,11.541,3.383c13.849,0,21.423-11.473,21.423-21.424,0-.326-.007-.651-.022-.974a15.269,15.269,0,0,0,3.758-3.9Z" transform="translate(-25.103 -34.028)" fill="#f1f2f2"/>
    </g>
  </g>
</svg>
