<svg xmlns="http://www.w3.org/2000/svg" width="353.261" height="288.459" viewBox="0 0 353.261 288.459">
  <g id="word-shape" transform="translate(-219 -1310)">
    <text id="W" transform="translate(243.578 1348)" fill="#363350" font-size="40" font-family="Raleway-Medium, Raleway" font-weight="500" opacity="0.6"><tspan x="0" y="0">W</tspan></text>
    <g id="undraw_teaching_f1cm" transform="translate(219 1338.432)">
      <path id="Path_11" data-name="Path 11" d="M1.784,0H351.477c.985,0,1.784,1.174,1.784,2.623V257.4c0,1.449-.8,2.623-1.784,2.623H1.784C.8,260.027,0,258.852,0,257.4V2.623C0,1.174.8,0,1.784,0Z" transform="translate(0 0)" fill="#e8e5ff"/>
      <path id="Path_10" data-name="Path 10" d="M118.87,482H472.131v10.536c0,2.837-1.564,5.136-3.494,5.136H122.364c-1.93,0-3.494-2.3-3.494-5.136Z" transform="translate(-118.87 -237.646)" fill="#b8b6dd" opacity="0.1"/>
    </g>
  </g>
</svg>
